<svg width="7" height="20" viewBox="0 0 7 20" fill="none" xmlns="http://www.w3.org/2000/svg">
<path d="M4.38076 7.17168C4.38076 8.08786 4.38076 9.20427 3.11696 9.65933C4.41114 10.1022 4.38076 11.0427 4.38076 12.0256V15.6661C4.38076 16.3578 4.66025 16.7764 5.15848 16.8795C5.26796 16.9164 5.38329 16.9329 5.49873 16.9281H6.71392V19.3551H4.70886C2.57013 19.3551 1.39139 18.1416 1.39139 15.8906V11.5827C1.37622 11.3615 1.27857 11.1541 1.11771 11.0013C0.956855 10.8486 0.744484 10.7616 0.522532 10.7575H0V8.62786H0.522532C0.748913 8.62488 0.965455 8.53498 1.12723 8.37682C1.28901 8.21866 1.38361 8.00438 1.39139 7.77843V3.40989C1.39139 1.19528 2.54582 0 4.70886 0H6.73215V2.39056H5.51696C5.40138 2.3909 5.28657 2.40932 5.17671 2.44517C4.67848 2.57258 4.39899 2.98517 4.39899 3.65865L4.38076 7.17168Z" fill="#FFB577"/>
</svg>
